<svg width="48" height="49" viewBox="0 0 48 49" fill="none" xmlns="http://www.w3.org/2000/svg">
<rect y="0.5" width="48" height="48" rx="24" fill="#019EAE"/>
<path fill-rule="evenodd" clip-rule="evenodd" d="M15.1716 17.6716C14 18.8431 14 20.7288 14 24.5C14 28.2712 14 30.1569 15.1716 31.3284C16.3431 32.5 18.2288 32.5 22 32.5H26C29.7712 32.5 31.6569 32.5 32.8284 31.3284C34 30.1569 34 28.2712 34 24.5C34 20.7288 34 18.8431 32.8284 17.6716C31.6569 16.5 29.7712 16.5 26 16.5H22C18.2288 16.5 16.3431 16.5 15.1716 17.6716ZM30.5762 20.0199C30.8413 20.3381 30.7983 20.811 30.4801 21.0762L28.2837 22.9066C27.3973 23.6452 26.6789 24.2439 26.0448 24.6517C25.3843 25.0765 24.7411 25.3449 24 25.3449C23.2589 25.3449 22.6157 25.0765 21.9552 24.6517C21.3211 24.2439 20.6027 23.6452 19.7164 22.9066L17.5199 21.0762C17.2017 20.811 17.1587 20.3381 17.4238 20.0199C17.689 19.7017 18.1619 19.6587 18.4801 19.9238L20.639 21.7229C21.572 22.5004 22.2197 23.0384 22.7666 23.3901C23.2959 23.7306 23.6549 23.8449 24 23.8449C24.3451 23.8449 24.7041 23.7306 25.2334 23.3901C25.7803 23.0384 26.428 22.5004 27.361 21.7229L29.5199 19.9238C29.8381 19.6587 30.311 19.7017 30.5762 20.0199Z" fill="white"/>
</svg>
