<svg width="48" height="49" viewBox="0 0 48 49" fill="none" xmlns="http://www.w3.org/2000/svg">
<rect y="0.5" width="48" height="48" rx="24" fill="#019EAE"/>
<path d="M22.0376 17.8162L22.6866 18.9791C23.2723 20.0286 23.0372 21.4053 22.1147 22.3278C22.1147 22.3278 22.1147 22.3278 22.1147 22.3278C22.1146 22.3279 20.9959 23.4468 23.0245 25.4755C25.0525 27.5035 26.1714 26.3861 26.1722 26.3853C26.1722 26.3853 26.1722 26.3853 26.1722 26.3853C27.0947 25.4628 28.4714 25.2277 29.5209 25.8134L30.6838 26.4624C32.2686 27.3468 32.4557 29.5692 31.0628 30.9622C30.2258 31.7992 29.2004 32.4505 28.0669 32.4934C26.1588 32.5658 22.9183 32.0829 19.6677 28.8323C16.4171 25.5817 15.9342 22.3412 16.0066 20.4331C16.0495 19.2996 16.7008 18.2742 17.5378 17.4372C18.9308 16.0443 21.1532 16.2314 22.0376 17.8162Z" fill="white"/>
<path d="M25.2595 14.3798C25.3257 13.9709 25.7122 13.6936 26.1211 13.7598C26.1464 13.7646 26.2279 13.7798 26.2705 13.7893C26.3559 13.8083 26.4749 13.8376 26.6233 13.8808C26.9201 13.9673 27.3347 14.1097 27.8323 14.3378C28.8286 14.7946 30.1544 15.5936 31.5302 16.9694C32.906 18.3452 33.705 19.671 34.1617 20.6673C34.3899 21.1649 34.5323 21.5795 34.6187 21.8763C34.6619 22.0247 34.6912 22.1437 34.7102 22.229C34.7197 22.2717 34.7267 22.3059 34.7315 22.3313L34.7373 22.3624C34.8034 22.7713 34.5286 23.1739 34.1197 23.2401C33.712 23.3061 33.3279 23.03 33.2601 22.6231C33.258 22.6121 33.2522 22.5828 33.2461 22.5551C33.2337 22.4997 33.2124 22.4119 33.1786 22.2957C33.1109 22.0634 32.9934 21.7181 32.7982 21.2924C32.4084 20.4421 31.7074 19.2679 30.4695 18.03C29.2317 16.7922 28.0575 16.0912 27.2072 15.7013C26.7815 15.5062 26.4362 15.3886 26.2038 15.321C26.0877 15.2871 25.9417 15.2536 25.8863 15.2413C25.4793 15.1735 25.1935 14.7876 25.2595 14.3798Z" fill="white"/>
<path fill-rule="evenodd" clip-rule="evenodd" d="M25.4857 17.8293C25.5995 17.431 26.0146 17.2004 26.4129 17.3142L26.2069 18.0353C26.4129 17.3142 26.4129 17.3142 26.4129 17.3142L26.4144 17.3146L26.4159 17.315L26.4192 17.316L26.427 17.3183L26.4468 17.3245C26.4618 17.3293 26.4807 17.3356 26.5031 17.3436C26.548 17.3595 26.6074 17.3822 26.6802 17.4134C26.8259 17.4758 27.0249 17.5722 27.2695 17.7169C27.7589 18.0066 28.4271 18.4878 29.2121 19.2728C29.9971 20.0577 30.4782 20.7259 30.7679 21.2154C30.9126 21.4599 31.009 21.659 31.0715 21.8047C31.1027 21.8775 31.1254 21.9368 31.1413 21.9817C31.1493 22.0042 31.1555 22.023 31.1604 22.0381L31.1665 22.0579L31.1688 22.0656L31.1698 22.069L31.1702 22.0705C31.1702 22.0705 31.1707 22.0719 30.4495 22.278L31.1707 22.0719C31.2845 22.4702 31.0538 22.8853 30.6556 22.9991C30.2607 23.1119 29.8492 22.8862 29.7313 22.4941L29.7276 22.4833C29.7223 22.4683 29.7113 22.4387 29.6928 22.3955C29.6558 22.3092 29.5887 22.168 29.4771 21.9794C29.2541 21.6026 28.8514 21.0334 28.1514 20.3334C27.4515 19.6335 26.8822 19.2308 26.5055 19.0078C26.3169 18.8962 26.1757 18.8291 26.0893 18.7921C26.0461 18.7736 26.0165 18.7625 26.0015 18.7572L25.9907 18.7535C25.5987 18.6356 25.3729 18.2242 25.4857 17.8293Z" fill="white"/>
</svg>
