<svg width="20" height="20" viewBox="0 0 20 20" fill="none" xmlns="http://www.w3.org/2000/svg">
<g id="euro">
<path id="Vector (Stroke)" fill-rule="evenodd" clip-rule="evenodd" d="M10.0001 2.2915C5.74289 2.2915 2.29175 5.74264 2.29175 9.99984C2.29175 14.257 5.74289 17.7082 10.0001 17.7082C14.2573 17.7082 17.7084 14.257 17.7084 9.99984C17.7084 5.74264 14.2573 2.2915 10.0001 2.2915ZM1.04175 9.99984C1.04175 5.05229 5.05253 1.0415 10.0001 1.0415C14.9476 1.0415 18.9584 5.05229 18.9584 9.99984C18.9584 14.9474 14.9476 18.9582 10.0001 18.9582C5.05253 18.9582 1.04175 14.9474 1.04175 9.99984ZM5.66939 9.37484C5.64019 9.57896 5.62508 9.78764 5.62508 9.99984C5.62508 10.212 5.64019 10.4207 5.66939 10.6248H8.33341C8.67859 10.6248 8.95841 10.9047 8.95841 11.2498C8.95841 11.595 8.67859 11.8748 8.33341 11.8748H6.0461C6.74827 13.3529 8.25483 14.3748 10.0001 14.3748C10.798 14.3748 11.5443 14.1618 12.1871 13.7899C12.4859 13.6171 12.8682 13.7192 13.0411 14.018C13.2139 14.3168 13.1118 14.6991 12.813 14.8719C11.985 15.3509 11.0236 15.6248 10.0001 15.6248C7.55092 15.6248 5.46735 14.0596 4.69515 11.8748H4.16675C3.82157 11.8748 3.54175 11.595 3.54175 11.2498C3.54175 10.9047 3.82157 10.6248 4.16675 10.6248H4.40941C4.38673 10.4196 4.37508 10.2111 4.37508 9.99984C4.37508 9.78858 4.38673 9.58005 4.40941 9.37484H4.16675C3.82157 9.37484 3.54175 9.09501 3.54175 8.74984C3.54175 8.40466 3.82157 8.12484 4.16675 8.12484H4.69515C5.46735 5.9401 7.55092 4.37484 10.0001 4.37484C11.0236 4.37484 11.985 4.64877 12.813 5.12774C13.1118 5.30058 13.2139 5.68291 13.0411 5.9817C12.8682 6.28049 12.4859 6.38259 12.1871 6.20975C11.5443 5.83787 10.798 5.62484 10.0001 5.62484C8.25483 5.62484 6.74827 6.64674 6.0461 8.12484H8.33341C8.67859 8.12484 8.95841 8.40466 8.95841 8.74984C8.95841 9.09501 8.67859 9.37484 8.33341 9.37484H5.66939Z" fill="white"/>
</g>
</svg>
