<svg width="20" height="20" viewBox="0 0 20 20" fill="none" xmlns="http://www.w3.org/2000/svg">
<g id="ruble">
<path id="Vector (Stroke)" fill-rule="evenodd" clip-rule="evenodd" d="M10.0001 2.2915C5.74289 2.2915 2.29175 5.74264 2.29175 9.99984C2.29175 14.257 5.74289 17.7082 10.0001 17.7082C14.2573 17.7082 17.7084 14.257 17.7084 9.99984C17.7084 5.74264 14.2573 2.2915 10.0001 2.2915ZM1.04175 9.99984C1.04175 5.05229 5.05253 1.0415 10.0001 1.0415C14.9476 1.0415 18.9584 5.05229 18.9584 9.99984C18.9584 14.9474 14.9476 18.9582 10.0001 18.9582C5.05253 18.9582 1.04175 14.9474 1.04175 9.99984ZM9.30134 5.20815C9.31207 5.20816 9.32277 5.20817 9.33341 5.20817H11.2501C12.7459 5.20817 13.9584 6.42073 13.9584 7.9165C13.9584 9.41228 12.7459 10.6248 11.2501 10.6248H8.95841V11.0415H10.0001C10.3453 11.0415 10.6251 11.3213 10.6251 11.6665C10.6251 12.0117 10.3453 12.2915 10.0001 12.2915H8.95841V14.1665C8.95841 14.5117 8.67859 14.7915 8.33341 14.7915C7.98824 14.7915 7.70841 14.5117 7.70841 14.1665V12.2915H7.50008C7.1549 12.2915 6.87508 12.0117 6.87508 11.6665C6.87508 11.3213 7.1549 11.0415 7.50008 11.0415H7.70841V10.6248H7.50008C7.1549 10.6248 6.87508 10.345 6.87508 9.99984C6.87508 9.65466 7.1549 9.37484 7.50008 9.37484H7.70841V6.83317C7.70841 6.82252 7.7084 6.81183 7.70839 6.8011C7.70824 6.67982 7.70809 6.55377 7.72637 6.43837C7.8252 5.81436 8.3146 5.32496 8.93861 5.22612C9.05401 5.20785 9.18007 5.208 9.30134 5.20815ZM8.95841 9.37484H11.2501C12.0555 9.37484 12.7084 8.72192 12.7084 7.9165C12.7084 7.11109 12.0555 6.45817 11.2501 6.45817H9.33341C9.25261 6.45817 9.20451 6.45822 9.16825 6.45922C9.14521 6.45985 9.13521 6.46072 9.13282 6.46095C9.04476 6.47548 8.97572 6.54452 8.9612 6.63258C8.96096 6.63498 8.96009 6.64497 8.95946 6.668C8.95847 6.70427 8.95841 6.75237 8.95841 6.83317V9.37484Z" fill="white"/>
</g>
</svg>
