<svg width="32" height="32" viewBox="0 0 32 32" fill="none" xmlns="http://www.w3.org/2000/svg">
<g id="Vector">
<path d="M0.00830078 15.0648C0.0898781 14.4597 0.147104 13.8484 0.257903 13.2482C1.08342 8.76143 3.40776 5.24265 7.17006 2.68087C9.34464 1.20031 11.7652 0.360183 14.3769 0.0850116C16.3006 -0.117105 18.2013 0.0448317 20.0739 0.53186C20.1238 0.545254 20.1713 0.56717 20.2322 0.589086V3.46864C15.133 2.01121 10.5646 2.94631 6.73417 6.66233C3.97393 9.33977 2.68331 12.6991 2.83307 16.5539C3.12407 24.0079 9.71356 29.9667 17.4415 29.1046C21.5873 28.6419 24.8309 26.5915 27.0956 23.0959C29.37 19.5856 29.7292 15.788 28.5238 11.7883H31.4314C31.7589 12.9414 31.9379 14.1224 31.9866 15.3205C32.3056 23.1616 26.9605 30.0287 19.2545 31.6639C18.5958 31.804 17.9163 31.8515 17.2467 31.944C17.1444 31.9586 17.0446 31.9805 16.9435 32H15.0684C14.9881 31.9817 14.9089 31.9537 14.8274 31.9489C12.324 31.7723 9.98386 31.0564 7.84703 29.7475C3.70363 27.2076 1.15282 23.5452 0.257903 18.754C0.145886 18.155 0.0898781 17.545 0.00830078 16.9386C0.00830078 16.314 0.00830078 15.6882 0.00830078 15.0636V15.0648Z" fill="#019EAE"/>
<path d="M16.9581 15.6212C16.6878 15.3801 16.3895 15.1659 16.1545 14.8956C14.971 13.5307 15.4958 11.5168 17.2126 10.8459C18.6238 10.2944 20.0556 10.2737 21.4802 10.8069C22.5212 11.1966 23.1811 11.9295 23.2968 13.0546C23.4052 14.109 22.9839 14.9394 22.0902 15.5226C22.0585 15.5433 22.033 15.5737 22.0305 15.5762C22.4019 15.866 22.8171 16.1058 23.1227 16.4443C24.4316 17.8908 24.0359 20.0021 22.302 20.9384C21.1977 21.5338 20.002 21.6226 18.782 21.5398C18.0418 21.4899 17.3185 21.345 16.6489 21.0017C15.6017 20.4659 14.9589 19.6416 14.9625 18.4363C14.9662 17.2041 15.62 16.3481 16.6793 15.7746C16.7609 15.7308 16.8473 15.6943 16.9301 15.6504C16.9472 15.6419 16.9581 15.62 16.9569 15.6212H16.9581ZM19.3592 19.5942C19.677 19.5528 19.9156 19.5369 20.1482 19.4882C20.8531 19.3397 21.2464 18.8868 21.2829 18.1988C21.3182 17.534 20.9639 17.0287 20.2857 16.8388C19.6733 16.6671 19.0511 16.6659 18.446 16.8814C17.8859 17.0799 17.5815 17.5255 17.5742 18.1185C17.5669 18.7285 17.8603 19.1936 18.4338 19.3908C18.7528 19.5004 19.0974 19.5382 19.3604 19.5942H19.3592ZM19.4213 14.7421C19.6514 14.7044 19.9253 14.6861 20.1822 14.6094C20.707 14.4548 20.9931 14.0518 20.9992 13.5197C21.0053 12.9803 20.7338 12.5676 20.2334 12.3861C19.739 12.2059 19.2325 12.2035 18.7297 12.3472C18.1501 12.514 17.8542 12.9292 17.8616 13.527C17.8689 14.1053 18.1684 14.4828 18.765 14.6374C18.9647 14.6898 19.1741 14.7032 19.4213 14.7409V14.7421Z" fill="#019EAE"/>
<path d="M10.147 21.4327V12.7697H8.14777V10.5683H12.8805V21.4327H10.147Z" fill="#019EAE"/>
<path d="M27.7129 9.55528H25.5055V6.50648H22.4676V4.30877H25.4945V1.25023H27.6959V4.29172H30.7495V6.49309H27.7141V9.55407L27.7129 9.55528Z" fill="#019EAE"/>
</g>
</svg>
