<svg width="24" height="24" viewBox="0 0 24 24" fill="none" xmlns="http://www.w3.org/2000/svg">
<g id="Vector">
<path d="M0 11.2986C0.0611986 10.8447 0.104129 10.3863 0.187249 9.93613C0.806542 6.57107 2.55024 3.93198 5.37269 2.01066C7.00404 0.900231 8.8199 0.270137 10.7792 0.0637587C12.2224 -0.087829 13.6482 0.0336238 15.053 0.398895C15.0905 0.40894 15.1261 0.425378 15.1718 0.441815V2.60148C11.3464 1.50841 7.91928 2.20973 5.04568 4.99675C2.97498 7.00483 2.00676 9.52429 2.11911 12.4154C2.33742 18.0059 7.2808 22.475 13.0782 21.8285C16.1884 21.4815 18.6217 19.9437 20.3207 17.3219C22.0269 14.6892 22.2964 11.841 21.3921 8.84123H23.5733C23.819 9.70601 23.9533 10.5918 23.9898 11.4904C24.2291 17.3712 20.2193 22.5216 14.4383 23.748C13.9441 23.853 13.4345 23.8886 12.9321 23.958C12.8554 23.969 12.7805 23.9854 12.7046 24H11.298C11.2377 23.9863 11.1783 23.9653 11.1171 23.9616C9.23916 23.8292 7.48358 23.2923 5.88054 22.3106C2.7722 20.4057 0.858607 17.6589 0.187249 14.0655C0.103215 13.6162 0.0611986 13.1587 0 12.704C0 12.2355 0 11.7661 0 11.2977V11.2986Z" fill="black" fill-opacity="0.4"/>
<path d="M12.7156 11.7159C12.5128 11.5351 12.289 11.3744 12.1127 11.1717C11.2249 10.148 11.6186 8.63759 12.9065 8.13443C13.9651 7.72076 15.0393 7.70524 16.108 8.10521C16.889 8.39743 17.384 8.94716 17.4708 9.79094C17.5521 10.5818 17.2361 11.2045 16.5656 11.642C16.5419 11.6575 16.5227 11.6803 16.5209 11.6821C16.7995 11.8995 17.1109 12.0794 17.3402 12.3332C18.3221 13.4181 18.0253 15.0015 16.7246 15.7038C15.8961 16.1503 14.9991 16.217 14.0839 16.1549C13.5285 16.1174 12.986 16.0088 12.4836 15.7513C11.6981 15.3495 11.2158 14.7312 11.2185 13.8272C11.2213 12.9031 11.7118 12.2611 12.5064 11.831C12.5676 11.7981 12.6325 11.7707 12.6946 11.7378C12.7074 11.7314 12.7156 11.715 12.7147 11.7159H12.7156ZM14.5168 14.6956C14.7552 14.6646 14.9343 14.6527 15.1087 14.6162C15.6376 14.5048 15.9326 14.1651 15.96 13.6491C15.9865 13.1505 15.7207 12.7716 15.212 12.6291C14.7525 12.5003 14.2858 12.4994 13.8318 12.6611C13.4116 12.8099 13.1833 13.1441 13.1778 13.5889C13.1723 14.0464 13.3924 14.3952 13.8227 14.5431C14.062 14.6253 14.3205 14.6536 14.5178 14.6956H14.5168ZM14.5634 11.0566C14.7361 11.0283 14.9416 11.0146 15.1343 10.9571C15.528 10.8411 15.7426 10.5388 15.7472 10.1398C15.7518 9.73524 15.5481 9.42567 15.1727 9.2896C14.8018 9.15445 14.4219 9.15263 14.0446 9.26038C13.6098 9.38549 13.3879 9.69688 13.3934 10.1453C13.3988 10.579 13.6235 10.8621 14.0711 10.9781C14.2209 11.0173 14.378 11.0274 14.5634 11.0557V11.0566Z" fill="black" fill-opacity="0.4"/>
<path d="M7.60598 16.0745V9.57726H6.10615V7.92623H9.65658V16.0745H7.60598Z" fill="black" fill-opacity="0.4"/>
<path d="M20.7838 7.16646H19.1277V4.87986H16.8488V3.23158H19.1195V0.937671H20.771V3.21879H23.0618V4.86982H20.7847V7.16555L20.7838 7.16646Z" fill="black" fill-opacity="0.4"/>
</g>
</svg>
