<svg width="24" height="25" viewBox="0 0 24 25" fill="none" xmlns="http://www.w3.org/2000/svg">
<path fill-rule="evenodd" clip-rule="evenodd" d="M15.7123 17.2729C16.0052 17.5658 16.4801 17.5658 16.7729 17.2729C17.0658 16.98 17.0658 16.5052 16.7729 16.2123L13.0607 12.5L16.7729 8.7877C17.0658 8.49481 17.0658 8.01993 16.7729 7.72704C16.48 7.43415 16.0052 7.43415 15.7123 7.72704L12 11.4393L8.28766 7.72699C7.99477 7.4341 7.5199 7.4341 7.227 7.72699C6.93411 8.01989 6.93411 8.49476 7.227 8.78765L10.9393 12.5L7.22699 16.2123C6.9341 16.5052 6.9341 16.9801 7.22699 17.273C7.51989 17.5659 7.99476 17.5659 8.28765 17.273L12 13.5606L15.7123 17.2729Z" fill="black"/>
</svg>
