<svg width="386" height="121" viewBox="0 0 386 121" fill="none" xmlns="http://www.w3.org/2000/svg">
<path d="M60.5688 0.5C27.4371 0.5 0.568848 27.3574 0.568848 60.5C0.568848 78.2683 8.29703 94.2329 20.567 105.219V60.5C20.567 38.4085 38.4774 20.4982 60.5688 20.4982C82.6603 20.4982 100.571 38.4085 100.571 60.5C100.571 82.5915 82.6658 100.502 60.5688 100.502C50.3265 100.502 40.9751 96.6487 33.9028 90.3087V114.264C41.9316 118.259 50.9933 120.5 60.5688 120.5C93.7115 120.5 120.569 93.6426 120.569 60.5C120.569 27.3574 93.7115 0.5 60.5688 0.5Z" fill="white"/>
<path d="M67.2369 72.0432L73.9102 83.5972C81.8734 78.9898 87.235 70.3653 87.235 60.5001C87.235 45.7761 75.3039 33.8341 60.569 33.8341C45.834 33.8341 33.9029 45.7761 33.9029 60.5001C33.9029 70.3653 39.2645 78.9898 47.2387 83.5972L53.9066 72.0487C49.9222 69.7422 47.2387 65.4354 47.2387 60.5001C47.2387 53.1381 53.207 47.1644 60.5744 47.1644C67.9419 47.1644 73.9102 53.1327 73.9102 60.5001C73.9102 65.4354 71.2267 69.7422 67.2423 72.0432H67.2369Z" fill="white"/>
<path d="M166.599 28.9326C175.737 28.9326 182.006 30.4411 185.4 33.4471C188.904 36.4039 190.653 41.9295 190.653 50.0294C190.653 54.3525 190.254 57.7739 189.461 60.2935C188.669 62.8131 187.286 64.7807 185.313 66.2072C183.345 67.6337 180.962 68.6174 178.17 69.164C175.377 69.7105 171.518 69.9838 166.594 69.9838H156.412V91.6544C156.412 92.201 156.33 92.5562 156.166 92.7202C156.002 92.8842 155.674 92.9661 155.182 92.9661H144.754C144.262 92.9661 143.934 92.8842 143.77 92.7202C143.606 92.5562 143.524 92.201 143.524 91.6544V30.9822C143.524 30.5449 143.606 30.2553 143.77 30.1186C143.934 29.982 144.262 29.8891 144.754 29.829C151.706 29.2278 158.98 28.9272 166.594 28.9272L166.599 28.9326ZM165.282 40.1806H156.417V60.0476H165.282C170.316 60.0476 173.628 59.4737 175.218 58.3259C176.803 57.0689 177.601 54.4127 177.601 50.3627C177.601 46.3128 176.781 43.5473 175.136 42.2356C173.546 40.8692 170.267 40.186 165.282 40.186V40.1806Z" fill="white"/>
<path d="M200.463 27.6211C202.709 27.6211 204.447 28.195 205.677 29.3427C206.907 30.4905 207.525 32.1082 207.525 34.1851C207.525 36.262 206.907 37.8962 205.677 39.0713C204.447 40.2463 202.709 40.8366 200.463 40.8366C198.217 40.8366 196.386 40.2463 195.129 39.0713C193.872 37.8962 193.243 36.2675 193.243 34.1851C193.243 32.1028 193.872 30.4905 195.129 29.3427C196.386 28.195 198.168 27.6211 200.463 27.6211ZM195.539 46.9907H205.224C206.043 46.9907 206.453 47.4007 206.453 48.2205V91.6491C206.453 92.5236 206.043 92.9609 205.224 92.9609H195.539C194.719 92.9609 194.309 92.5236 194.309 91.6491V48.2205C194.309 47.4007 194.719 46.9907 195.539 46.9907Z" fill="white"/>
<path d="M233.158 46.5811C237.481 46.5811 240.804 46.827 243.132 47.3189C245.461 47.8108 247.385 48.7673 248.92 50.1937C250.505 51.6202 251.588 53.5441 252.161 55.9817C252.735 58.4193 253.025 61.8516 253.025 66.2841V91.6494C253.025 92.5239 252.588 92.9611 251.713 92.9611H242.028C241.209 92.9611 240.799 92.5239 240.799 91.6494V69.3994C240.799 66.0054 240.7 63.6115 240.509 62.2178C240.318 60.8241 239.864 59.7146 239.154 58.8948C238.498 58.075 237.716 57.5667 236.814 57.3754C235.913 57.1841 234.311 57.0857 232.01 57.0857H224.539V91.6494C224.539 92.5239 224.129 92.9611 223.309 92.9611H213.542C212.723 92.9611 212.313 92.5239 212.313 91.6494V49.2045C212.313 48.8766 212.367 48.6306 212.477 48.4667C212.586 48.3027 212.706 48.1934 212.848 48.1387C212.985 48.0841 213.22 48.0294 213.548 47.9748C217.871 47.0456 224.413 46.5811 233.169 46.5811H233.158Z" fill="white"/>
<path d="M259.939 29.4246H269.623C270.443 29.4246 270.853 29.8618 270.853 30.7363V62.7531L282.593 47.8105C282.976 47.2639 283.549 46.9906 284.315 46.9906H295.399C296.765 46.9906 297.011 47.5099 296.136 48.5483L282.921 65.0486L299.749 90.7418C300.569 92.2175 300.104 92.9608 298.355 92.9608H288.009C287.135 92.9608 286.534 92.6602 286.206 92.059L270.853 67.8414V91.649C270.853 92.5235 270.443 92.9608 269.623 92.9608H259.939C259.119 92.9608 258.709 92.5235 258.709 91.649V30.7363C258.709 29.8618 259.119 29.4246 259.939 29.4246Z" fill="white"/>
<path d="M320.064 46.5811C324.606 46.5811 328.153 46.9254 330.695 47.6086C333.242 48.2918 335.302 49.5379 336.892 51.3415C338.477 53.0959 339.56 55.3641 340.133 58.1569C340.707 60.9498 340.997 64.8904 340.997 69.9788C340.997 79.3357 339.631 85.6046 336.892 88.78C334.154 91.8461 328.547 93.3765 320.064 93.3765C311.582 93.3765 305.969 91.8461 303.236 88.78C300.498 85.6046 299.131 79.3411 299.131 69.9788C299.131 60.6164 300.498 54.3256 303.236 51.2595C305.974 48.1387 311.582 46.5811 320.064 46.5811ZM320.064 57.0912C316.342 57.0912 313.959 57.9383 312.921 59.6381C311.882 61.2285 311.363 64.6718 311.363 69.9842C311.363 75.2967 311.882 78.7126 312.921 80.4124C313.959 82.052 316.342 82.8773 320.064 82.8773C323.786 82.8773 326.164 82.0575 327.208 80.4124C328.301 78.6634 328.847 75.1874 328.847 69.9842C328.847 64.7811 328.301 61.3379 327.208 59.6381C326.169 57.9438 323.786 57.0912 320.064 57.0912Z" fill="white"/>
<path d="M374.517 29.4246H384.202C385.021 29.4246 385.431 29.8618 385.431 30.7363V89.7635C385.431 90.9659 384.857 91.649 383.71 91.8185C377.304 92.8569 371.287 93.3761 365.646 93.3761C357.054 93.3761 351.359 91.8185 348.572 88.6977C345.779 85.5769 344.386 79.3681 344.386 70.0604C344.386 60.7527 345.643 54.5986 348.162 51.4231C350.736 48.193 355.743 46.5807 363.187 46.5807C366.909 46.5807 370.275 46.7447 373.287 47.0726V30.7363C373.287 29.8618 373.697 29.4246 374.517 29.4246ZM373.287 57.1728H365.898C361.848 57.1728 359.273 57.9653 358.18 59.5558C357.087 61.1462 356.541 64.6168 356.541 69.9839C356.541 75.351 357.033 78.5756 358.016 80.33C359.055 82.0298 361.52 82.877 365.406 82.877C368.527 82.877 371.15 82.6857 373.287 82.3031V57.1728Z" fill="white"/>
</svg>
