<svg width="23" height="18" viewBox="0 0 23 18" fill="none" xmlns="http://www.w3.org/2000/svg">
<path id="Vector" d="M2.19451 7.83904C2.19451 7.83904 11.576 3.88771 14.8297 2.49634C16.077 1.93984 20.3068 0.158893 20.3068 0.158893C20.3068 0.158893 22.259 -0.620205 22.0963 1.27197C22.0421 2.05114 21.6083 4.77811 21.1745 7.72774C20.5237 11.9018 19.8187 16.4653 19.8187 16.4653C19.8187 16.4653 19.7103 17.7453 18.7884 17.9679C17.8665 18.1905 16.3481 17.1888 16.077 16.9662C15.86 16.7993 12.0098 14.2948 10.5999 13.0704C10.2203 12.7365 9.78649 12.0687 10.6541 11.2896C12.6064 9.45301 14.9381 7.17125 16.3481 5.72427C16.9989 5.05639 17.6496 3.49812 14.9381 5.39029C11.088 8.11733 7.29198 10.6774 7.29198 10.6774C7.29198 10.6774 6.4243 11.2339 4.79747 10.733C3.17056 10.2322 1.27257 9.56431 1.27257 9.56431C1.27257 9.56431 -0.0288372 8.72952 2.19451 7.83904Z" fill="white"/>
</svg>
